<svg xmlns="http://www.w3.org/2000/svg" width="20" height="20"><path d="M9.992 2A8 8 0 1 0 18 10a8 8 0 0 0-8.008-8zm5.544 4.8h-2.36a12.519 12.519 0 0 0-1.1-2.848 6.424 6.424 0 0 1 3.46 2.848zM10 3.632A11.269 11.269 0 0 1 11.528 6.8H8.472A11.269 11.269 0 0 1 10 3.632zM3.808 11.6a6.258 6.258 0 0 1 0-3.2h2.7A13.212 13.212 0 0 0 6.4 10a13.212 13.212 0 0 0 .112 1.6zm.656 1.6h2.36a12.519 12.519 0 0 0 1.1 2.848 6.389 6.389 0 0 1-3.46-2.848zm2.36-6.4h-2.36a6.389 6.389 0 0 1 3.464-2.848A12.519 12.519 0 0 0 6.824 6.8zM10 16.368A11.269 11.269 0 0 1 8.472 13.2h3.056A11.269 11.269 0 0 1 10 16.368zm1.872-4.768H8.128A11.77 11.77 0 0 1 8 10a11.668 11.668 0 0 1 .128-1.6h3.744A11.668 11.668 0 0 1 12 10a11.77 11.77 0 0 1-.128 1.6zm.2 4.448a12.519 12.519 0 0 0 1.1-2.848h2.36a6.424 6.424 0 0 1-3.46 2.848zm1.416-4.448A13.212 13.212 0 0 0 13.6 10a13.212 13.212 0 0 0-.112-1.6h2.7a6.258 6.258 0 0 1 0 3.2z" fill="#303030"/></svg>
