<svg id="_7123025_logo_google_g_icon" data-name="7123025_logo_google_g_icon" xmlns="http://www.w3.org/2000/svg" width="17" height="17.345" viewBox="0 0 17 17.345">
  <path id="Path_1" data-name="Path 1" d="M84.232,68.557a10.847,10.847,0,0,0-.151-1.757H75.9v3.344h4.686a3.942,3.942,0,0,1-1.738,2.626l2.8,2.173a8.528,8.528,0,0,0,2.588-6.386Z" transform="translate(-67.232 -59.677)" fill="#4280ef"/>
  <path id="Path_2" data-name="Path 2" d="M42.647,90.891a8.3,8.3,0,0,0,5.744-2.1l-2.8-2.154a5.261,5.261,0,0,1-7.822-2.74L34.9,86.111A8.664,8.664,0,0,0,42.647,90.891Z" transform="translate(-33.979 -73.546)" fill="#34a353"/>
  <path id="Path_3" data-name="Path 3" d="M33.818,59.955a5.268,5.268,0,0,1,0-3.325L30.946,54.4a8.684,8.684,0,0,0,0,7.784Z" transform="translate(-30.025 -49.619)" fill="#f6b704"/>
  <path id="Path_4" data-name="Path 4" d="M42.647,32.537a4.731,4.731,0,0,1,3.325,1.3l2.475-2.494a8.346,8.346,0,0,0-5.8-2.248,8.664,8.664,0,0,0-7.747,4.78l2.872,2.229A5.188,5.188,0,0,1,42.647,32.537Z" transform="translate(-33.979 -29.098)" fill="#e54335"/>
</svg>
