<svg xmlns="http://www.w3.org/2000/svg" height="60" width="60"  fill-rule="evenodd"><path d="M2.996 0h54.008C58.659 0 60 1.337 60 2.996v54.008C60 58.659 58.663 60 57.004 60H2.996C1.341 60 0 58.663 0 57.004V2.996C0 1.341 1.337 0 2.996 0z" fill="#4186cd"/><path d="M41.052 18.437c-1.209-1.374-2.932-2.25-4.838-2.282-3.66-.061-6.628 3.032-6.628 6.908 0 .55.059 1.087.172 1.602-5.509-.357-10.393-3.226-13.662-7.55-.571 1.036-.898 2.247-.898 3.544 0 2.456 1.17 4.635 2.949 5.922-1.087-.048-2.109-.377-3.002-.916v.089c0 3.43 2.285 6.307 5.317 6.977a6.24 6.24 0 0 1-1.746.236 6.25 6.25 0 0 1-1.247-.135c.843 2.813 3.291 4.865 6.192 4.933-2.268 1.883-5.126 3.005-8.232 2.998-.535-.001-1.063-.036-1.581-.102 2.933 2.013 6.417 3.185 10.161 3.186 12.192.003 18.859-10.607 18.859-19.809a21.39 21.39 0 0 0-.019-.901c1.295-.965 2.419-2.175 3.307-3.556a12.65 12.65 0 0 1-3.807 1.041c1.368-.842 2.42-2.19 2.914-3.806-1.281.777-2.699 1.334-4.209 1.623z" fill="#fff"/></svg>
