<svg xmlns="http://www.w3.org/2000/svg" height="60" width="60"  fill-rule="evenodd"><path d="M2.996 0h54.008C58.659 0 60 1.337 60 2.996v54.008C60 58.659 58.663 60 57.004 60H2.996C1.341 60 0 58.663 0 57.004V2.996C0 1.341 1.337 0 2.996 0z" fill="#ca4638"/><path d="M49.216 22.069s-.375-2.643-1.525-3.807c-1.458-1.527-3.093-1.534-3.842-1.624-5.366-.388-13.416-.388-13.416-.388h-.017s-8.049 0-13.416.388c-.749.089-2.384.097-3.842 1.624-1.15 1.164-1.524 3.807-1.524 3.807s-.383 3.103-.383 6.206v2.91c0 3.103.383 6.206.383 6.206s.374 2.643 1.524 3.807c1.459 1.528 3.375 1.479 4.228 1.639 3.068.294 13.038.386 13.038.386s8.058-.012 13.425-.4c.749-.089 2.384-.097 3.842-1.624 1.15-1.164 1.525-3.807 1.525-3.807s.383-3.103.383-6.206v-2.91c0-3.103-.383-6.206-.383-6.206zM26.465 34.71l-.002-10.775 10.362 5.406-10.36 5.369z" fill="#fff"/></svg>
